<?xml version="1.0" encoding="UTF-8"?><svg id="a" xmlns="http://www.w3.org/2000/svg" viewBox="0 0 154 164.92"><g transform="translate(0.000000,165.000000) scale(1,-1)"><path d="M63.8,153.6c-25-5.4-44.7-21.8-54.1-45.2-5.8-14.5-7-32.1-3-47.3C13.6,35,36.7,11.9,62.5,5.4c11.8-3,29-2.4,40.7,1.4,22.9,7.5,42.9,27.4,45,45.1l.6,5-2.6-5.2c-3-6.1-8.9-14.4-9.8-13.7-.3,.3,.2,1.9,1,3.5,3.4,6.2,8.3,34.8,6.4,37.7-.5,.8-1.7-1.6-3.1-5.9-3-9.4-8.8-20.2-10.5-19.6-.7,.3-1.7-.4-2-1.6-.4-1.1-3.8-5.2-7.7-9-7.6-7.6-17.4-13.4-27.6-16.3-8.2-2.4-23.6-1.7-29.3,1.4-2.2,1.1-6.5,3.2-9.7,4.7-11.2,5.2-22.1,19.2-26.5,34.2-5.1,17.7,0,39.3,13,54.6,14.6,17.3,41.7,22.2,63.8,11.6,7.8-3.6,18.3-12.8,22.6-19.6,1.6-2.6,2.9-4.2,2.9-3.5,0,2.6-9.4,13.4-15.6,18.1-6.1,4.7-22.1,12.4-25.4,12.4-.8,0-1.8,.5-2.1,1-.7,1.2-13.9,1.4-19.7,.1-4.3-.9-14-3.5-17.7-4.8-1.6-.5-1.2,0,.9,1.9,4.2,3.6,15.2,7.1,24.7,7.7,5,.4,7.8,1,7.4,1.7-.4,.6,1.2,.8,4.8,.3,14.4-1.9,30.9-9.9,40.4-19.6,6.1-6.1,7.8-8.3,11.8-15.7,1.6-2.9,2.9-4.8,2.9-4.2,0,.5-1.7,3.7-3.6,7.1-3.9,6.5-4.3,7.4-2.4,6.2,.7-.5,.8-.3,.4,.5-.5,.7-1.1,1-1.4,.7-.7-.8-4.4,2.5-4.4,3.8,0,.6,1,.2,2.4-.9,1.2-1.1,1-.5-.7,1.4s-3.5,3.2-4.1,3.1c-.6-.1-1.1,.4-1.2,1,0,.7-2.9,3.8-6.4,7-7.6,6.6-18.4,11.4-32,14.2-10.7,2.3-16.1,2.4-24.9,.4h0Z" style="fill:#ffffff;"/></g></svg>