<?xml version="1.0" encoding="UTF-8"?><svg id="a" xmlns="http://www.w3.org/2000/svg" viewBox="0 0 294.8 266.46"><text transform="translate(-1.15 219.71)" style="fill:#1a98d5; font-family:NasalizationRg-Regular, Nasalization; font-size:62px;"><tspan x="0" y="0">OneDevs</tspan></text><text transform="translate(44.02 252.4)" style="fill:#1a98d5; font-family:NasalizationRg-Regular, Nasalization; font-size:18px;"><tspan x="0" y="0">Developing the Future</tspan></text><g transform="translate(0.000000,165.000000) scale(0.95,-0.95)"><path d="M135.47,14.26c-24.1,5.2-43,21-52.1,43.5-5.6,14-6.7,30.9-2.9,45.5,6.6,25.1,28.9,47.4,53.7,53.6,11.4,2.9,27.9,2.3,39.2-1.4,22-7.2,41.3-26.4,43.3-43.4l.6-4.8-2.5,5c-2.9,5.9-8.6,13.9-9.4,13.2-.3-.3,.2-1.8,1-3.4,3.3-6,8-33.5,6.2-36.3-.5-.8-1.6,1.5-3,5.7-2.9,9.1-8.5,19.5-10.1,18.9-.7-.3-1.6,.4-1.9,1.5-.4,1.1-3.7,5-7.4,8.7-7.3,7.3-16.7,12.9-26.6,15.7-7.9,2.3-22.7,1.6-28.2-1.4-2.1-1.1-6.3-3.1-9.3-4.5-10.8-5-21.3-18.5-25.5-32.9-4.9-17,0-37.8,12.5-52.6,14-16.6,40.1-21.3,61.4-11.1,7.5,3.5,17.6,12.3,21.8,18.9,1.5,2.5,2.8,4,2.8,3.4,0-2.5-9-12.9-15-17.4-5.9-4.5-21.3-11.9-24.5-11.9-.8,0-1.7-.5-2-1-.7-1.2-13.4-1.3-19-.1-4.1,.9-13.5,3.4-17,4.6-1.5,.5-1.2,0,.9-1.8,4-3.5,14.6-6.8,23.8-7.4,4.8-.4,7.5-1,7.1-1.6s1.2-.8,4.6-.3c13.9,1.8,29.8,9.5,38.9,18.9,5.9,5.9,7.5,8,11.4,15.1,1.5,2.8,2.8,4.6,2.8,4,0-.5-1.6-3.6-3.5-6.8-3.8-6.3-4.1-7.1-2.3-6,.7,.5,.8,.3,.4-.5-.5-.7-1.1-1-1.4-.7-.7,.8-4.2-2.4-4.2-3.7,0-.6,1-.2,2.3,.9,1.2,1.1,1,.5-.7-1.3-1.6-1.8-3.4-3.1-3.9-3-.6,.1-1.1-.4-1.2-1,0-.7-2.8-3.7-6.2-6.7-7.3-6.4-17.7-11-30.8-13.7-10.4-2.2-15.6-2.3-24.1-.4Z" style="fill:#1d97d4;"/></g></svg>